<mxfile host="app.diagrams.net" agent="Mozilla/5.0 (Windows NT 10.0; Win64; x64) AppleWebKit/537.36 (KHTML, like Gecko) Chrome/130.0.0.0 Safari/537.36" version="24.8.4">
  <diagram id="AXRmiALY-gt5mDKcBv-0" name="Page-1">
    <mxGraphModel dx="1588" dy="1448" grid="1" gridSize="10" guides="1" tooltips="1" connect="1" arrows="1" fold="1" page="1" pageScale="1" pageWidth="1654" pageHeight="1169" math="0" shadow="0">
      <root>
        <mxCell id="0" />
        <mxCell id="1" parent="0" />
        <mxCell id="NOdoTnpzaHG506Xg1cyA-5" value="&lt;div style=&quot;box-sizing:border-box;width:100%;background:#e4e4e4;padding:2px;&quot;&gt;&lt;b&gt;Fact_Sales&lt;/b&gt;&lt;br&gt;&lt;/div&gt;&lt;table style=&quot;width:100%;font-size:1em;&quot; cellspacing=&quot;0&quot; cellpadding=&quot;2&quot;&gt;&lt;tbody&gt;&lt;tr&gt;&lt;td&gt;&lt;u&gt;PK&lt;/u&gt;&lt;/td&gt;&lt;td&gt;&lt;u&gt;sales_id&lt;/u&gt;&lt;/td&gt;&lt;td&gt;&lt;u&gt;int&lt;br&gt;&lt;/u&gt;&lt;/td&gt;&lt;td&gt;&lt;u&gt;not null&lt;/u&gt;&lt;br&gt;&lt;/td&gt;&lt;/tr&gt;&lt;tr&gt;&lt;td&gt;FK&lt;/td&gt;&lt;td&gt;date_id&lt;br&gt;&lt;/td&gt;&lt;td&gt;int&lt;br&gt;&lt;/td&gt;&lt;td&gt;not nulll&lt;br&gt;&lt;/td&gt;&lt;/tr&gt;&lt;tr&gt;&lt;td&gt;FK&lt;/td&gt;&lt;td&gt;product_id&lt;br&gt;&lt;/td&gt;&lt;td&gt;int&lt;/td&gt;&lt;td&gt;not null&lt;br&gt;&lt;/td&gt;&lt;/tr&gt;&lt;tr&gt;&lt;td&gt;FK&lt;/td&gt;&lt;td&gt;customer_id&lt;/td&gt;&lt;td&gt;int&lt;br&gt;&lt;/td&gt;&lt;td&gt;not null&lt;br&gt;&lt;/td&gt;&lt;/tr&gt;&lt;tr&gt;&lt;td&gt;FK&lt;/td&gt;&lt;td&gt;store_id&lt;/td&gt;&lt;td&gt;int&lt;br&gt;&lt;/td&gt;&lt;td&gt;not null&lt;br&gt;&lt;/td&gt;&lt;/tr&gt;&lt;tr&gt;&lt;td&gt;&lt;br&gt;&lt;/td&gt;&lt;td&gt;quantity_sold&lt;br&gt;&lt;/td&gt;&lt;td&gt;int&lt;br&gt;&lt;/td&gt;&lt;td&gt;not null&lt;br&gt;&lt;/td&gt;&lt;/tr&gt;&lt;tr&gt;&lt;td&gt;&lt;br&gt;&lt;/td&gt;&lt;td&gt;sales_amount&lt;br&gt;&lt;/td&gt;&lt;td&gt;decimal(10,2)&lt;br&gt;&lt;/td&gt;&lt;td&gt;not null&lt;br&gt;&lt;/td&gt;&lt;/tr&gt;&lt;tr&gt;&lt;td&gt;&lt;br&gt;&lt;/td&gt;&lt;td&gt;discount_amount&lt;br&gt;&lt;/td&gt;&lt;td&gt;decimal(10,2)&lt;br&gt;&lt;/td&gt;&lt;td&gt;not null&lt;br&gt;&lt;/td&gt;&lt;/tr&gt;&lt;tr&gt;&lt;td&gt;&lt;br&gt;&lt;/td&gt;&lt;td&gt;total_revenue&lt;br&gt;&lt;/td&gt;&lt;td&gt;decimal(10,2)&lt;/td&gt;&lt;td&gt;sales_amount - discount_amount&lt;br&gt;&lt;/td&gt;&lt;/tr&gt;&lt;/tbody&gt;&lt;/table&gt;" style="verticalAlign=top;align=left;overflow=fill;html=1;labelBorderColor=default;" vertex="1" parent="1">
          <mxGeometry x="312" y="465" width="425" height="200" as="geometry" />
        </mxCell>
        <mxCell id="NOdoTnpzaHG506Xg1cyA-6" value="&lt;div style=&quot;box-sizing:border-box;width:100%;background:#e4e4e4;padding:2px;&quot;&gt;&lt;b&gt;Fact_Inventory&lt;/b&gt;&lt;br&gt;&lt;/div&gt;&lt;table style=&quot;width:100%;font-size:1em;&quot; cellspacing=&quot;0&quot; cellpadding=&quot;2&quot;&gt;&lt;tbody&gt;&lt;tr&gt;&lt;td&gt;&lt;u&gt;PK&lt;/u&gt;&lt;/td&gt;&lt;td&gt;&lt;u&gt;intentory_id&lt;/u&gt;&lt;/td&gt;&lt;td&gt;&lt;u&gt;int&lt;br&gt;&lt;/u&gt;&lt;/td&gt;&lt;td&gt;&lt;u&gt;not null&lt;/u&gt;&lt;br&gt;&lt;/td&gt;&lt;/tr&gt;&lt;tr&gt;&lt;td&gt;FK&lt;/td&gt;&lt;td&gt;date_id&lt;br&gt;&lt;/td&gt;&lt;td&gt;int&lt;br&gt;&lt;/td&gt;&lt;td&gt;not nulll&lt;br&gt;&lt;/td&gt;&lt;/tr&gt;&lt;tr&gt;&lt;td&gt;FK&lt;/td&gt;&lt;td&gt;product_id&lt;br&gt;&lt;/td&gt;&lt;td&gt;int&lt;/td&gt;&lt;td&gt;not null&lt;br&gt;&lt;/td&gt;&lt;/tr&gt;&lt;tr&gt;&lt;td&gt;FK&lt;/td&gt;&lt;td&gt;store_id&lt;/td&gt;&lt;td&gt;int&lt;br&gt;&lt;/td&gt;&lt;td&gt;not null&lt;br&gt;&lt;/td&gt;&lt;/tr&gt;&lt;tr&gt;&lt;td&gt;&lt;br&gt;&lt;/td&gt;&lt;td&gt;quantity_in_stock&lt;br&gt;&lt;/td&gt;&lt;td&gt;int&lt;br&gt;&lt;/td&gt;&lt;td&gt;not null&lt;br&gt;&lt;/td&gt;&lt;/tr&gt;&lt;tr&gt;&lt;td&gt;&lt;br&gt;&lt;/td&gt;&lt;td&gt;reorder_level&lt;br&gt;&lt;/td&gt;&lt;td&gt;decimal(10,2)&lt;br&gt;&lt;/td&gt;&lt;td&gt;not null&lt;br&gt;&lt;/td&gt;&lt;/tr&gt;&lt;tr&gt;&lt;td&gt;&lt;br&gt;&lt;/td&gt;&lt;td&gt;quantity_on_order&lt;br&gt;&lt;/td&gt;&lt;td&gt;decimal(10,2)&lt;br&gt;&lt;/td&gt;&lt;td&gt;not null&lt;br&gt;&lt;/td&gt;&lt;/tr&gt;&lt;tr&gt;&lt;td&gt;&lt;br&gt;&lt;/td&gt;&lt;td&gt;inventory_value&lt;br&gt;&lt;/td&gt;&lt;td&gt;decimal(10,2)&lt;/td&gt;&lt;td&gt;quantity_in_stock * product_cost&lt;br&gt;&lt;/td&gt;&lt;/tr&gt;&lt;/tbody&gt;&lt;/table&gt;" style="verticalAlign=top;align=left;overflow=fill;html=1;labelBorderColor=default;" vertex="1" parent="1">
          <mxGeometry x="822" y="475" width="425" height="200" as="geometry" />
        </mxCell>
        <mxCell id="NOdoTnpzaHG506Xg1cyA-17" style="edgeStyle=orthogonalEdgeStyle;rounded=0;orthogonalLoop=1;jettySize=auto;html=1;" edge="1" parent="1" source="NOdoTnpzaHG506Xg1cyA-7" target="NOdoTnpzaHG506Xg1cyA-6">
          <mxGeometry relative="1" as="geometry" />
        </mxCell>
        <mxCell id="NOdoTnpzaHG506Xg1cyA-7" value="&lt;div style=&quot;box-sizing:border-box;width:100%;background:#e4e4e4;padding:2px;&quot;&gt;&lt;b&gt;Dim_Date&lt;/b&gt;&lt;br&gt;&lt;/div&gt;&lt;table style=&quot;width:100%;font-size:1em;&quot; cellspacing=&quot;0&quot; cellpadding=&quot;2&quot;&gt;&lt;tbody&gt;&lt;tr&gt;&lt;td&gt;&lt;u&gt;SK&lt;/u&gt;&lt;/td&gt;&lt;td&gt;&lt;u&gt;date_id&lt;/u&gt;&lt;/td&gt;&lt;td&gt;&lt;u&gt;int&lt;br&gt;&lt;/u&gt;&lt;/td&gt;&lt;td&gt;&lt;u&gt;not null&lt;/u&gt;&lt;br&gt;&lt;/td&gt;&lt;/tr&gt;&lt;tr&gt;&lt;td&gt;&lt;br&gt;&lt;/td&gt;&lt;td&gt;date&lt;br&gt;&lt;/td&gt;&lt;td&gt;date&lt;/td&gt;&lt;td&gt;not nulll&lt;br&gt;&lt;/td&gt;&lt;/tr&gt;&lt;tr&gt;&lt;td&gt;&lt;br&gt;&lt;/td&gt;&lt;td&gt;day_of_week&lt;br&gt;&lt;/td&gt;&lt;td&gt;varchar(10)&lt;br&gt;&lt;/td&gt;&lt;td&gt;not null&lt;br&gt;&lt;/td&gt;&lt;/tr&gt;&lt;tr&gt;&lt;td&gt;&lt;br&gt;&lt;/td&gt;&lt;td&gt;month&lt;/td&gt;&lt;td&gt;varchar(10)&lt;br&gt;&lt;/td&gt;&lt;td&gt;not null&lt;br&gt;&lt;/td&gt;&lt;/tr&gt;&lt;tr&gt;&lt;td&gt;&lt;br&gt;&lt;/td&gt;&lt;td&gt;quarter&lt;br&gt;&lt;/td&gt;&lt;td&gt;varchar(10)&lt;br&gt;&lt;/td&gt;&lt;td&gt;not null&lt;br&gt;&lt;/td&gt;&lt;/tr&gt;&lt;tr&gt;&lt;td&gt;&lt;br&gt;&lt;/td&gt;&lt;td&gt;year&lt;br&gt;&lt;/td&gt;&lt;td&gt;int&lt;/td&gt;&lt;td&gt;not null&lt;br&gt;&lt;/td&gt;&lt;/tr&gt;&lt;/tbody&gt;&lt;/table&gt;" style="verticalAlign=top;align=left;overflow=fill;html=1;labelBorderColor=default;" vertex="1" parent="1">
          <mxGeometry x="22" y="145" width="240" height="140" as="geometry" />
        </mxCell>
        <mxCell id="NOdoTnpzaHG506Xg1cyA-19" style="edgeStyle=orthogonalEdgeStyle;rounded=0;orthogonalLoop=1;jettySize=auto;html=1;entryX=1;entryY=0.5;entryDx=0;entryDy=0;" edge="1" parent="1" source="NOdoTnpzaHG506Xg1cyA-10" target="NOdoTnpzaHG506Xg1cyA-6">
          <mxGeometry relative="1" as="geometry" />
        </mxCell>
        <mxCell id="NOdoTnpzaHG506Xg1cyA-10" value="&lt;div style=&quot;box-sizing:border-box;width:100%;background:#e4e4e4;padding:2px;&quot;&gt;&lt;b&gt;Dim_Product&lt;/b&gt;&lt;br&gt;&lt;/div&gt;&lt;table style=&quot;width:100%;font-size:1em;&quot; cellspacing=&quot;0&quot; cellpadding=&quot;2&quot;&gt;&lt;tbody&gt;&lt;tr&gt;&lt;td&gt;&lt;u&gt;PK&lt;/u&gt;&lt;/td&gt;&lt;td&gt;&lt;u&gt;product_id&lt;/u&gt;&lt;/td&gt;&lt;td&gt;&lt;u&gt;int&lt;br&gt;&lt;/u&gt;&lt;/td&gt;&lt;td&gt;&lt;u&gt;not null&lt;/u&gt;&lt;br&gt;&lt;/td&gt;&lt;/tr&gt;&lt;tr&gt;&lt;td&gt;&lt;br&gt;&lt;/td&gt;&lt;td&gt;product_name&lt;br&gt;&lt;/td&gt;&lt;td&gt;varchar(100)&lt;br&gt;&lt;/td&gt;&lt;td&gt;not null&lt;br&gt;&lt;/td&gt;&lt;/tr&gt;&lt;tr&gt;&lt;td&gt;&lt;br&gt;&lt;/td&gt;&lt;td&gt;category&lt;br&gt;&lt;/td&gt;&lt;td&gt;varchar(50)&lt;br&gt;&lt;/td&gt;&lt;td&gt;not null&lt;br&gt;&lt;/td&gt;&lt;/tr&gt;&lt;tr&gt;&lt;td&gt;&lt;br&gt;&lt;/td&gt;&lt;td&gt;brand&lt;/td&gt;&lt;td&gt;varchar(50)&lt;br&gt;&lt;/td&gt;&lt;td&gt;not null&lt;br&gt;&lt;/td&gt;&lt;/tr&gt;&lt;tr&gt;&lt;td&gt;&lt;br&gt;&lt;/td&gt;&lt;td&gt;product_cost&lt;br&gt;&lt;/td&gt;&lt;td&gt;decimal(10,2)&lt;br&gt;&lt;/td&gt;&lt;td&gt;not null&lt;br&gt;&lt;/td&gt;&lt;/tr&gt;&lt;tr&gt;&lt;td&gt;&lt;br&gt;&lt;/td&gt;&lt;td&gt;product_price&lt;br&gt;&lt;/td&gt;&lt;td&gt;decimal(10,2)&lt;br&gt;&lt;/td&gt;&lt;td&gt;not null&lt;br&gt;&lt;/td&gt;&lt;/tr&gt;&lt;/tbody&gt;&lt;/table&gt;" style="verticalAlign=top;align=left;overflow=fill;html=1;labelBorderColor=default;" vertex="1" parent="1">
          <mxGeometry x="1392" y="165" width="240" height="150" as="geometry" />
        </mxCell>
        <mxCell id="NOdoTnpzaHG506Xg1cyA-21" style="edgeStyle=orthogonalEdgeStyle;rounded=0;orthogonalLoop=1;jettySize=auto;html=1;exitX=0.5;exitY=0;exitDx=0;exitDy=0;entryX=0.5;entryY=1;entryDx=0;entryDy=0;" edge="1" parent="1" source="NOdoTnpzaHG506Xg1cyA-12" target="NOdoTnpzaHG506Xg1cyA-6">
          <mxGeometry relative="1" as="geometry">
            <mxPoint x="632" y="805.0000000000002" as="targetPoint" />
          </mxGeometry>
        </mxCell>
        <mxCell id="NOdoTnpzaHG506Xg1cyA-12" value="&lt;div style=&quot;box-sizing:border-box;width:100%;background:#e4e4e4;padding:2px;&quot;&gt;&lt;b&gt;Dim_Customer&lt;/b&gt;&lt;br&gt;&lt;/div&gt;&lt;table style=&quot;width:100%;font-size:1em;&quot; cellspacing=&quot;0&quot; cellpadding=&quot;2&quot;&gt;&lt;tbody&gt;&lt;tr&gt;&lt;td&gt;&lt;u&gt;PK&lt;/u&gt;&lt;/td&gt;&lt;td&gt;&lt;u&gt;customer_id&lt;/u&gt;&lt;/td&gt;&lt;td&gt;&lt;u&gt;int&lt;br&gt;&lt;/u&gt;&lt;/td&gt;&lt;td&gt;&lt;u&gt;not null&lt;/u&gt;&lt;br&gt;&lt;/td&gt;&lt;/tr&gt;&lt;tr&gt;&lt;td&gt;&lt;br&gt;&lt;/td&gt;&lt;td&gt;first_name&lt;br&gt;&lt;/td&gt;&lt;td&gt;varchar(50)&lt;br&gt;&lt;/td&gt;&lt;td&gt;not null&lt;br&gt;&lt;/td&gt;&lt;/tr&gt;&lt;tr&gt;&lt;td&gt;&lt;br&gt;&lt;/td&gt;&lt;td&gt;last_name&lt;br&gt;&lt;/td&gt;&lt;td&gt;varchar(50)&lt;br&gt;&lt;/td&gt;&lt;td&gt;not null&lt;br&gt;&lt;/td&gt;&lt;/tr&gt;&lt;tr&gt;&lt;td&gt;&lt;br&gt;&lt;/td&gt;&lt;td&gt;email&lt;/td&gt;&lt;td&gt;varchar(100)&lt;br&gt;&lt;/td&gt;&lt;td&gt;not null&lt;br&gt;&lt;/td&gt;&lt;/tr&gt;&lt;tr&gt;&lt;td&gt;&lt;br&gt;&lt;/td&gt;&lt;td&gt;phone&lt;br&gt;&lt;/td&gt;&lt;td&gt;varchar(15)&lt;br&gt;&lt;/td&gt;&lt;td&gt;not null&lt;br&gt;&lt;/td&gt;&lt;/tr&gt;&lt;tr&gt;&lt;td&gt;&lt;br&gt;&lt;/td&gt;&lt;td&gt;address&lt;br&gt;&lt;/td&gt;&lt;td&gt;varchar(100)&lt;br&gt;&lt;/td&gt;&lt;td&gt;not null&lt;br&gt;&lt;/td&gt;&lt;/tr&gt;&lt;tr&gt;&lt;td&gt;&lt;br&gt;&lt;/td&gt;&lt;td&gt;city&lt;br&gt;&lt;/td&gt;&lt;td&gt;varchar(50)&lt;br&gt;&lt;/td&gt;&lt;td&gt;not null&lt;br&gt;&lt;/td&gt;&lt;/tr&gt;&lt;tr&gt;&lt;td&gt;&lt;br&gt;&lt;/td&gt;&lt;td&gt;state&lt;br&gt;&lt;/td&gt;&lt;td&gt;varchar(50)&lt;br&gt;&lt;/td&gt;&lt;td&gt;not null&lt;br&gt;&lt;/td&gt;&lt;/tr&gt;&lt;tr&gt;&lt;td&gt;&lt;br&gt;&lt;/td&gt;&lt;td&gt;country&lt;br&gt;&lt;/td&gt;&lt;td&gt;varchar(50)&lt;br&gt;&lt;/td&gt;&lt;td&gt;not null&lt;br&gt;&lt;/td&gt;&lt;/tr&gt;&lt;/tbody&gt;&lt;/table&gt;" style="verticalAlign=top;align=left;overflow=fill;html=1;labelBorderColor=default;" vertex="1" parent="1">
          <mxGeometry x="942" y="845" width="240" height="190" as="geometry" />
        </mxCell>
        <mxCell id="NOdoTnpzaHG506Xg1cyA-22" style="edgeStyle=orthogonalEdgeStyle;rounded=0;orthogonalLoop=1;jettySize=auto;html=1;entryX=0.25;entryY=1;entryDx=0;entryDy=0;exitX=0.5;exitY=0;exitDx=0;exitDy=0;" edge="1" parent="1" source="NOdoTnpzaHG506Xg1cyA-14" target="NOdoTnpzaHG506Xg1cyA-6">
          <mxGeometry relative="1" as="geometry" />
        </mxCell>
        <mxCell id="NOdoTnpzaHG506Xg1cyA-14" value="&lt;div style=&quot;box-sizing:border-box;width:100%;background:#e4e4e4;padding:2px;&quot;&gt;&lt;b&gt;Dim_Store&lt;/b&gt;&lt;br&gt;&lt;/div&gt;&lt;table style=&quot;width:100%;font-size:1em;&quot; cellspacing=&quot;0&quot; cellpadding=&quot;2&quot;&gt;&lt;tbody&gt;&lt;tr&gt;&lt;td&gt;&lt;u&gt;PK&lt;/u&gt;&lt;/td&gt;&lt;td&gt;&lt;u&gt;store_id&lt;/u&gt;&lt;/td&gt;&lt;td&gt;&lt;u&gt;int&lt;br&gt;&lt;/u&gt;&lt;/td&gt;&lt;td&gt;&lt;u&gt;not null&lt;/u&gt;&lt;br&gt;&lt;/td&gt;&lt;/tr&gt;&lt;tr&gt;&lt;td&gt;&lt;br&gt;&lt;/td&gt;&lt;td&gt;store_name&lt;br&gt;&lt;/td&gt;&lt;td&gt;varchar(100)&lt;br&gt;&lt;/td&gt;&lt;td&gt;not null&lt;br&gt;&lt;/td&gt;&lt;/tr&gt;&lt;tr&gt;&lt;td&gt;&lt;br&gt;&lt;/td&gt;&lt;td&gt;location&lt;br&gt;&lt;/td&gt;&lt;td&gt;varchar(100)&lt;br&gt;&lt;/td&gt;&lt;td&gt;not null&lt;br&gt;&lt;/td&gt;&lt;/tr&gt;&lt;tr&gt;&lt;td&gt;&lt;br&gt;&lt;/td&gt;&lt;td&gt;city&lt;/td&gt;&lt;td&gt;varchar(50)&lt;br&gt;&lt;/td&gt;&lt;td&gt;not null&lt;br&gt;&lt;/td&gt;&lt;/tr&gt;&lt;tr&gt;&lt;td&gt;&lt;br&gt;&lt;/td&gt;&lt;td&gt;state&lt;br&gt;&lt;/td&gt;&lt;td&gt;varchar(50)&lt;br&gt;&lt;/td&gt;&lt;td&gt;not null&lt;br&gt;&lt;/td&gt;&lt;/tr&gt;&lt;tr&gt;&lt;td&gt;&lt;br&gt;&lt;/td&gt;&lt;td&gt;country&lt;br&gt;&lt;/td&gt;&lt;td&gt;varchar(50)&lt;br&gt;&lt;/td&gt;&lt;td&gt;not null&lt;br&gt;&lt;/td&gt;&lt;/tr&gt;&lt;tr&gt;&lt;td&gt;&lt;br&gt;&lt;/td&gt;&lt;td&gt;store_manager&lt;br&gt;&lt;/td&gt;&lt;td&gt;varchar(100)&lt;br&gt;&lt;/td&gt;&lt;td&gt;not null&lt;br&gt;&lt;/td&gt;&lt;/tr&gt;&lt;/tbody&gt;&lt;/table&gt;" style="verticalAlign=top;align=left;overflow=fill;html=1;labelBorderColor=default;" vertex="1" parent="1">
          <mxGeometry x="642" y="845" width="240" height="150" as="geometry" />
        </mxCell>
        <mxCell id="NOdoTnpzaHG506Xg1cyA-16" style="edgeStyle=orthogonalEdgeStyle;rounded=0;orthogonalLoop=1;jettySize=auto;html=1;entryX=0.282;entryY=-0.005;entryDx=0;entryDy=0;entryPerimeter=0;" edge="1" parent="1" source="NOdoTnpzaHG506Xg1cyA-7" target="NOdoTnpzaHG506Xg1cyA-5">
          <mxGeometry relative="1" as="geometry" />
        </mxCell>
        <mxCell id="NOdoTnpzaHG506Xg1cyA-20" style="edgeStyle=orthogonalEdgeStyle;rounded=0;orthogonalLoop=1;jettySize=auto;html=1;entryX=0.721;entryY=0.007;entryDx=0;entryDy=0;entryPerimeter=0;" edge="1" parent="1" source="NOdoTnpzaHG506Xg1cyA-10" target="NOdoTnpzaHG506Xg1cyA-5">
          <mxGeometry relative="1" as="geometry">
            <Array as="points">
              <mxPoint x="1512" y="135" />
              <mxPoint x="618" y="135" />
            </Array>
          </mxGeometry>
        </mxCell>
      </root>
    </mxGraphModel>
  </diagram>
</mxfile>
